<svg xmlns="http://www.w3.org/2000/svg" version="1.1" xmlns:xlink="http://www.w3.org/1999/xlink" xmlns:svgjs="http://svgjs.com/svgjs" width="1440" height="560" preserveAspectRatio="none" viewBox="0 0 1440 560"><g mask="url(&quot;#SvgjsMask1000&quot;)" fill="none"><rect width="1440" height="560" x="0" y="0" fill="#0e2a47"></rect><path d="M-47.75 387.28L-47.75 387.28" stroke="#132e65" stroke-width="1.5"></path><path d="M-47.75 387.28L49.82 364.86" stroke="#132e65" stroke-width="1.5"></path><path d="M-47.75 387.28L-65.72 539.52" stroke="#132e65" stroke-width="1.5"></path><path d="M-47.75 387.28L80.53 515.11" stroke="#132e65" stroke-width="1.5"></path><path d="M-65.72 539.52L-65.72 539.52" stroke="#132e65" stroke-width="1.5"></path><path d="M-65.72 539.52L80.53 515.11" stroke="#132e65" stroke-width="1.5"></path><path d="M-65.72 539.52L48.39 694.22" stroke="#132e65" stroke-width="1.5"></path><path d="M-65.72 539.52L49.82 364.86" stroke="#132e65" stroke-width="1.5"></path><path d="M-65.72 539.52L218.92 508.25" stroke="#132e65" stroke-width="1.5"></path><path d="M49.82 364.86L49.82 364.86" stroke="#132e65" stroke-width="1.5"></path><path d="M49.82 364.86L80.53 515.11" stroke="#132e65" stroke-width="1.5"></path><path d="M80.53 515.11L80.53 515.11" stroke="#132e65" stroke-width="1.5"></path><path d="M80.53 515.11L218.92 508.25" stroke="#132e65" stroke-width="1.5"></path><path d="M80.53 515.11L48.39 694.22" stroke="#132e65" stroke-width="1.5"></path><path d="M80.53 515.11L256.99 654.94" stroke="#132e65" stroke-width="1.5"></path><path d="M48.39 694.22L48.39 694.22" stroke="#132e65" stroke-width="1.5"></path><path d="M48.39 694.22L256.99 654.94" stroke="#132e65" stroke-width="1.5"></path><path d="M48.39 694.22L218.92 508.25" stroke="#132e65" stroke-width="1.5"></path><path d="M48.39 694.22L-47.75 387.28" stroke="#132e65" stroke-width="1.5"></path><path d="M218.92 508.25L218.92 508.25" stroke="#132e65" stroke-width="1.5"></path><path d="M218.92 508.25L256.99 654.94" stroke="#132e65" stroke-width="1.5"></path><path d="M218.92 508.25L401.96 513.73" stroke="#132e65" stroke-width="1.5"></path><path d="M218.92 508.25L371.58 369.27" stroke="#132e65" stroke-width="1.5"></path><path d="M256.99 654.94L256.99 654.94" stroke="#132e65" stroke-width="1.5"></path><path d="M256.99 654.94L388.94 646.1" stroke="#132e65" stroke-width="1.5"></path><path d="M256.99 654.94L401.96 513.73" stroke="#132e65" stroke-width="1.5"></path><path d="M371.58 369.27L371.58 369.27" stroke="#132e65" stroke-width="1.5"></path><path d="M371.58 369.27L401.96 513.73" stroke="#132e65" stroke-width="1.5"></path><path d="M371.58 369.27L548.35 398.95" stroke="#132e65" stroke-width="1.5"></path><path d="M401.96 513.73L401.96 513.73" stroke="#132e65" stroke-width="1.5"></path><path d="M401.96 513.73L511.59 534.09" stroke="#132e65" stroke-width="1.5"></path><path d="M388.94 646.1L388.94 646.1" stroke="#132e65" stroke-width="1.5"></path><path d="M388.94 646.1L401.96 513.73" stroke="#132e65" stroke-width="1.5"></path><path d="M388.94 646.1L532.88 644.53" stroke="#132e65" stroke-width="1.5"></path><path d="M388.94 646.1L511.59 534.09" stroke="#132e65" stroke-width="1.5"></path><path d="M388.94 646.1L218.92 508.25" stroke="#132e65" stroke-width="1.5"></path><path d="M388.94 646.1L371.58 369.27" stroke="#132e65" stroke-width="1.5"></path><path d="M548.35 398.95L548.35 398.95" stroke="#132e65" stroke-width="1.5"></path><path d="M548.35 398.95L660.57 353.18" stroke="#132e65" stroke-width="1.5"></path><path d="M548.35 398.95L511.59 534.09" stroke="#132e65" stroke-width="1.5"></path><path d="M511.59 534.09L511.59 534.09" stroke="#132e65" stroke-width="1.5"></path><path d="M511.59 534.09L532.88 644.53" stroke="#132e65" stroke-width="1.5"></path><path d="M532.88 644.53L532.88 644.53" stroke="#132e65" stroke-width="1.5"></path><path d="M532.88 644.53L682.33 654.78" stroke="#132e65" stroke-width="1.5"></path><path d="M532.88 644.53L655.26 527.43" stroke="#132e65" stroke-width="1.5"></path><path d="M660.57 353.18L660.57 353.18" stroke="#132e65" stroke-width="1.5"></path><path d="M660.57 353.18L812.95 349.14" stroke="#132e65" stroke-width="1.5"></path><path d="M660.57 353.18L655.26 527.43" stroke="#132e65" stroke-width="1.5"></path><path d="M655.26 527.43L655.26 527.43" stroke="#132e65" stroke-width="1.5"></path><path d="M655.26 527.43L682.33 654.78" stroke="#132e65" stroke-width="1.5"></path><path d="M655.26 527.43L511.59 534.09" stroke="#132e65" stroke-width="1.5"></path><path d="M655.26 527.43L548.35 398.95" stroke="#132e65" stroke-width="1.5"></path><path d="M682.33 654.78L682.33 654.78" stroke="#132e65" stroke-width="1.5"></path><path d="M682.33 654.78L813.19 693.78" stroke="#132e65" stroke-width="1.5"></path><path d="M682.33 654.78L857.37 543.31" stroke="#132e65" stroke-width="1.5"></path><path d="M682.33 654.78L511.59 534.09" stroke="#132e65" stroke-width="1.5"></path><path d="M682.33 654.78L548.35 398.95" stroke="#132e65" stroke-width="1.5"></path><path d="M852.45 90.44L852.45 90.44" stroke="#132e65" stroke-width="1.5"></path><path d="M852.45 90.44L959.9 79.13" stroke="#132e65" stroke-width="1.5"></path><path d="M852.45 90.44L805.26 211.7" stroke="#132e65" stroke-width="1.5"></path><path d="M852.45 90.44L990.22 222.13" stroke="#132e65" stroke-width="1.5"></path><path d="M852.45 90.44L1002.39 -43.77" stroke="#132e65" stroke-width="1.5"></path><path d="M805.26 211.7L805.26 211.7" stroke="#132e65" stroke-width="1.5"></path><path d="M805.26 211.7L812.95 349.14" stroke="#132e65" stroke-width="1.5"></path><path d="M805.26 211.7L990.22 222.13" stroke="#132e65" stroke-width="1.5"></path><path d="M805.26 211.7L660.57 353.18" stroke="#132e65" stroke-width="1.5"></path><path d="M805.26 211.7L959.9 79.13" stroke="#132e65" stroke-width="1.5"></path><path d="M812.95 349.14L812.95 349.14" stroke="#132e65" stroke-width="1.5"></path><path d="M812.95 349.14L1004.24 375.5" stroke="#132e65" stroke-width="1.5"></path><path d="M857.37 543.31L857.37 543.31" stroke="#132e65" stroke-width="1.5"></path><path d="M857.37 543.31L813.19 693.78" stroke="#132e65" stroke-width="1.5"></path><path d="M857.37 543.31L812.95 349.14" stroke="#132e65" stroke-width="1.5"></path><path d="M813.19 693.78L813.19 693.78" stroke="#132e65" stroke-width="1.5"></path><path d="M813.19 693.78L1006.54 676.62" stroke="#132e65" stroke-width="1.5"></path><path d="M813.19 693.78L655.26 527.43" stroke="#132e65" stroke-width="1.5"></path><path d="M813.19 693.78L1095.2 693.46" stroke="#132e65" stroke-width="1.5"></path><path d="M1002.39 -43.77L1002.39 -43.77" stroke="#132e65" stroke-width="1.5"></path><path d="M1002.39 -43.77L959.9 79.13" stroke="#132e65" stroke-width="1.5"></path><path d="M1002.39 -43.77L1107.24 64.84" stroke="#132e65" stroke-width="1.5"></path><path d="M1002.39 -43.77L1146.32 -97.17" stroke="#132e65" stroke-width="1.5"></path><path d="M959.9 79.13L959.9 79.13" stroke="#132e65" stroke-width="1.5"></path><path d="M990.22 222.13L990.22 222.13" stroke="#132e65" stroke-width="1.5"></path><path d="M990.22 222.13L959.9 79.13" stroke="#132e65" stroke-width="1.5"></path><path d="M990.22 222.13L1004.24 375.5" stroke="#132e65" stroke-width="1.5"></path><path d="M990.22 222.13L1150.82 200.57" stroke="#132e65" stroke-width="1.5"></path><path d="M1004.24 375.5L1004.24 375.5" stroke="#132e65" stroke-width="1.5"></path><path d="M1004.24 375.5L1153.14 380.8" stroke="#132e65" stroke-width="1.5"></path><path d="M1004.24 375.5L857.37 543.31" stroke="#132e65" stroke-width="1.5"></path><path d="M1004.24 375.5L1150.82 200.57" stroke="#132e65" stroke-width="1.5"></path><path d="M1006.54 676.62L1006.54 676.62" stroke="#132e65" stroke-width="1.5"></path><path d="M1006.54 676.62L1095.2 693.46" stroke="#132e65" stroke-width="1.5"></path><path d="M1006.54 676.62L1154.87 560.03" stroke="#132e65" stroke-width="1.5"></path><path d="M1146.32 -97.17L1146.32 -97.17" stroke="#132e65" stroke-width="1.5"></path><path d="M1146.32 -97.17L1291.34 -78.99" stroke="#132e65" stroke-width="1.5"></path><path d="M1146.32 -97.17L1107.24 64.84" stroke="#132e65" stroke-width="1.5"></path><path d="M1146.32 -97.17L1281.18 85.35" stroke="#132e65" stroke-width="1.5"></path><path d="M1107.24 64.84L1107.24 64.84" stroke="#132e65" stroke-width="1.5"></path><path d="M1107.24 64.84L1150.82 200.57" stroke="#132e65" stroke-width="1.5"></path><path d="M1107.24 64.84L959.9 79.13" stroke="#132e65" stroke-width="1.5"></path><path d="M1107.24 64.84L1281.18 85.35" stroke="#132e65" stroke-width="1.5"></path><path d="M1107.24 64.84L1246.92 192.06" stroke="#132e65" stroke-width="1.5"></path><path d="M1150.82 200.57L1150.82 200.57" stroke="#132e65" stroke-width="1.5"></path><path d="M1150.82 200.57L1246.92 192.06" stroke="#132e65" stroke-width="1.5"></path><path d="M1153.14 380.8L1153.14 380.8" stroke="#132e65" stroke-width="1.5"></path><path d="M1153.14 380.8L1292.27 347.37" stroke="#132e65" stroke-width="1.5"></path><path d="M1154.87 560.03L1154.87 560.03" stroke="#132e65" stroke-width="1.5"></path><path d="M1154.87 560.03L1259.19 494.04" stroke="#132e65" stroke-width="1.5"></path><path d="M1154.87 560.03L1258.49 645.3" stroke="#132e65" stroke-width="1.5"></path><path d="M1154.87 560.03L1095.2 693.46" stroke="#132e65" stroke-width="1.5"></path><path d="M1154.87 560.03L1153.14 380.8" stroke="#132e65" stroke-width="1.5"></path><path d="M1154.87 560.03L1004.24 375.5" stroke="#132e65" stroke-width="1.5"></path><path d="M1095.2 693.46L1095.2 693.46" stroke="#132e65" stroke-width="1.5"></path><path d="M1095.2 693.46L1258.49 645.3" stroke="#132e65" stroke-width="1.5"></path><path d="M1291.34 -78.99L1291.34 -78.99" stroke="#132e65" stroke-width="1.5"></path><path d="M1291.34 -78.99L1410.04 -38.06" stroke="#132e65" stroke-width="1.5"></path><path d="M1291.34 -78.99L1281.18 85.35" stroke="#132e65" stroke-width="1.5"></path><path d="M1281.18 85.35L1281.18 85.35" stroke="#132e65" stroke-width="1.5"></path><path d="M1281.18 85.35L1246.92 192.06" stroke="#132e65" stroke-width="1.5"></path><path d="M1246.92 192.06L1246.92 192.06" stroke="#132e65" stroke-width="1.5"></path><path d="M1246.92 192.06L1391.13 216.82" stroke="#132e65" stroke-width="1.5"></path><path d="M1246.92 192.06L1292.27 347.37" stroke="#132e65" stroke-width="1.5"></path><path d="M1292.27 347.37L1292.27 347.37" stroke="#132e65" stroke-width="1.5"></path><path d="M1292.27 347.37L1405.7 367.42" stroke="#132e65" stroke-width="1.5"></path><path d="M1259.19 494.04L1259.19 494.04" stroke="#132e65" stroke-width="1.5"></path><path d="M1259.19 494.04L1292.27 347.37" stroke="#132e65" stroke-width="1.5"></path><path d="M1259.19 494.04L1258.49 645.3" stroke="#132e65" stroke-width="1.5"></path><path d="M1259.19 494.04L1153.14 380.8" stroke="#132e65" stroke-width="1.5"></path><path d="M1258.49 645.3L1258.49 645.3" stroke="#132e65" stroke-width="1.5"></path><path d="M1258.49 645.3L1436.63 693.48" stroke="#132e65" stroke-width="1.5"></path><path d="M1410.04 -38.06L1410.04 -38.06" stroke="#132e65" stroke-width="1.5"></path><path d="M1410.04 -38.06L1454.03 39.26" stroke="#132e65" stroke-width="1.5"></path><path d="M1454.03 39.26L1454.03 39.26" stroke="#132e65" stroke-width="1.5"></path><path d="M1454.03 39.26L1587.86 78.09" stroke="#132e65" stroke-width="1.5"></path><path d="M1454.03 39.26L1558.94 -74.69" stroke="#132e65" stroke-width="1.5"></path><path d="M1454.03 39.26L1281.18 85.35" stroke="#132e65" stroke-width="1.5"></path><path d="M1454.03 39.26L1391.13 216.82" stroke="#132e65" stroke-width="1.5"></path><path d="M1391.13 216.82L1391.13 216.82" stroke="#132e65" stroke-width="1.5"></path><path d="M1391.13 216.82L1405.7 367.42" stroke="#132e65" stroke-width="1.5"></path><path d="M1391.13 216.82L1292.27 347.37" stroke="#132e65" stroke-width="1.5"></path><path d="M1391.13 216.82L1281.18 85.35" stroke="#132e65" stroke-width="1.5"></path><path d="M1405.7 367.42L1405.7 367.42" stroke="#132e65" stroke-width="1.5"></path><path d="M1405.7 367.42L1451.01 490.98" stroke="#132e65" stroke-width="1.5"></path><path d="M1405.7 367.42L1558.27 407.66" stroke="#132e65" stroke-width="1.5"></path><path d="M1451.01 490.98L1451.01 490.98" stroke="#132e65" stroke-width="1.5"></path><path d="M1451.01 490.98L1539.54 541.33" stroke="#132e65" stroke-width="1.5"></path><path d="M1451.01 490.98L1558.27 407.66" stroke="#132e65" stroke-width="1.5"></path><path d="M1436.63 693.48L1436.63 693.48" stroke="#132e65" stroke-width="1.5"></path><path d="M1436.63 693.48L1605.85 696.76" stroke="#132e65" stroke-width="1.5"></path><path d="M1436.63 693.48L1539.54 541.33" stroke="#132e65" stroke-width="1.5"></path><path d="M1436.63 693.48L1451.01 490.98" stroke="#132e65" stroke-width="1.5"></path><path d="M1436.63 693.48L1259.19 494.04" stroke="#132e65" stroke-width="1.5"></path><path d="M1558.94 -74.69L1558.94 -74.69" stroke="#132e65" stroke-width="1.5"></path><path d="M1558.94 -74.69L1410.04 -38.06" stroke="#132e65" stroke-width="1.5"></path><path d="M1558.94 -74.69L1587.86 78.09" stroke="#132e65" stroke-width="1.5"></path><path d="M1558.94 -74.69L1291.34 -78.99" stroke="#132e65" stroke-width="1.5"></path><path d="M1558.94 -74.69L1597.71 241.84" stroke="#132e65" stroke-width="1.5"></path><path d="M1558.94 -74.69L1281.18 85.35" stroke="#132e65" stroke-width="1.5"></path><path d="M1587.86 78.09L1587.86 78.09" stroke="#132e65" stroke-width="1.5"></path><path d="M1597.71 241.84L1597.71 241.84" stroke="#132e65" stroke-width="1.5"></path><path d="M1597.71 241.84L1587.86 78.09" stroke="#132e65" stroke-width="1.5"></path><path d="M1597.71 241.84L1558.27 407.66" stroke="#132e65" stroke-width="1.5"></path><path d="M1597.71 241.84L1391.13 216.82" stroke="#132e65" stroke-width="1.5"></path><path d="M1558.27 407.66L1558.27 407.66" stroke="#132e65" stroke-width="1.5"></path><path d="M1558.27 407.66L1539.54 541.33" stroke="#132e65" stroke-width="1.5"></path><path d="M1539.54 541.33L1539.54 541.33" stroke="#132e65" stroke-width="1.5"></path><path d="M1539.54 541.33L1605.85 696.76" stroke="#132e65" stroke-width="1.5"></path><path d="M1539.54 541.33L1405.7 367.42" stroke="#132e65" stroke-width="1.5"></path><path d="M1539.54 541.33L1259.19 494.04" stroke="#132e65" stroke-width="1.5"></path><path d="M1605.85 696.76L1605.85 696.76" stroke="#132e65" stroke-width="1.5"></path><path d="M1605.85 696.76L1451.01 490.98" stroke="#132e65" stroke-width="1.5"></path><circle r="5" cx="-47.75" cy="387.28" fill="#132e65"></circle><circle r="5" cx="-65.72" cy="539.52" fill="#132e65"></circle><circle r="5" cx="49.82" cy="364.86" fill="#132e65"></circle><circle r="5" cx="80.53" cy="515.11" fill="#132e65"></circle><circle r="5" cx="48.39" cy="694.22" fill="#132e65"></circle><circle r="5" cx="218.92" cy="508.25" fill="#132e65"></circle><circle r="5" cx="256.99" cy="654.94" fill="#132e65"></circle><circle r="5" cx="371.58" cy="369.27" fill="#132e65"></circle><circle r="5" cx="401.96" cy="513.73" fill="#132e65"></circle><circle r="5" cx="388.94" cy="646.1" fill="#132e65"></circle><circle r="5" cx="548.35" cy="398.95" fill="#132e65"></circle><circle r="5" cx="511.59" cy="534.09" fill="#132e65"></circle><circle r="5" cx="532.88" cy="644.53" fill="#132e65"></circle><circle r="5" cx="660.57" cy="353.18" fill="#132e65"></circle><circle r="5" cx="655.26" cy="527.43" fill="#132e65"></circle><circle r="5" cx="682.33" cy="654.78" fill="#132e65"></circle><circle r="5" cx="852.45" cy="90.44" fill="#132e65"></circle><circle r="5" cx="805.26" cy="211.7" fill="#132e65"></circle><circle r="5" cx="812.95" cy="349.14" fill="#132e65"></circle><circle r="5" cx="857.37" cy="543.31" fill="#132e65"></circle><circle r="5" cx="813.19" cy="693.78" fill="#132e65"></circle><circle r="5" cx="1002.39" cy="-43.77" fill="#132e65"></circle><circle r="5" cx="959.9" cy="79.13" fill="#132e65"></circle><circle r="5" cx="990.22" cy="222.13" fill="#132e65"></circle><circle r="5" cx="1004.24" cy="375.5" fill="#132e65"></circle><circle r="5" cx="1006.54" cy="676.62" fill="#132e65"></circle><circle r="5" cx="1146.32" cy="-97.17" fill="#132e65"></circle><circle r="5" cx="1107.24" cy="64.84" fill="#132e65"></circle><circle r="5" cx="1150.82" cy="200.57" fill="#132e65"></circle><circle r="5" cx="1153.14" cy="380.8" fill="#132e65"></circle><circle r="5" cx="1154.87" cy="560.03" fill="#132e65"></circle><circle r="5" cx="1095.2" cy="693.46" fill="#132e65"></circle><circle r="5" cx="1291.34" cy="-78.99" fill="#132e65"></circle><circle r="5" cx="1281.18" cy="85.35" fill="#132e65"></circle><circle r="5" cx="1246.92" cy="192.06" fill="#132e65"></circle><circle r="5" cx="1292.27" cy="347.37" fill="#132e65"></circle><circle r="5" cx="1259.19" cy="494.04" fill="#132e65"></circle><circle r="5" cx="1258.49" cy="645.3" fill="#132e65"></circle><circle r="5" cx="1410.04" cy="-38.06" fill="#132e65"></circle><circle r="5" cx="1454.03" cy="39.26" fill="#132e65"></circle><circle r="5" cx="1391.13" cy="216.82" fill="#132e65"></circle><circle r="5" cx="1405.7" cy="367.42" fill="#132e65"></circle><circle r="5" cx="1451.01" cy="490.98" fill="#132e65"></circle><circle r="5" cx="1436.63" cy="693.48" fill="#132e65"></circle><circle r="5" cx="1558.94" cy="-74.69" fill="#132e65"></circle><circle r="5" cx="1587.86" cy="78.09" fill="#132e65"></circle><circle r="5" cx="1597.71" cy="241.84" fill="#132e65"></circle><circle r="5" cx="1558.27" cy="407.66" fill="#132e65"></circle><circle r="5" cx="1539.54" cy="541.33" fill="#132e65"></circle><circle r="5" cx="1605.85" cy="696.76" fill="#132e65"></circle><path d="M493.75 660.33L493.75 660.33" stroke="hsl(228.5, 77.2%, 51.5%)" stroke-width="1.5"></path><path d="M493.75 660.33L385.74 656.29" stroke="hsl(228.5, 77.2%, 51.5%)" stroke-width="1.5"></path><path d="M493.75 660.33L527.65 525.17" stroke="hsl(228.5, 77.2%, 51.5%)" stroke-width="1.5"></path><path d="M493.75 660.33L402.24 534.85" stroke="hsl(228.5, 77.2%, 51.5%)" stroke-width="1.5"></path><path d="M493.75 660.33L683.82 638.04" stroke="hsl(228.5, 77.2%, 51.5%)" stroke-width="1.5"></path><path d="M688.73 522.73L688.73 522.73" stroke="hsl(228.5, 77.2%, 51.5%)" stroke-width="1.5"></path><path d="M688.73 522.73L794.49 543.74" stroke="hsl(228.5, 77.2%, 51.5%)" stroke-width="1.5"></path><path d="M688.73 522.73L683.82 638.04" stroke="hsl(228.5, 77.2%, 51.5%)" stroke-width="1.5"></path><path d="M688.73 522.73L663.94 393.07" stroke="hsl(228.5, 77.2%, 51.5%)" stroke-width="1.5"></path><path d="M1126.41 649.42L1126.41 649.42" stroke="hsl(228.5, 77.2%, 51.5%)" stroke-width="1.5"></path><path d="M1126.41 649.42L1147.5 525.98" stroke="hsl(228.5, 77.2%, 51.5%)" stroke-width="1.5"></path><path d="M1126.41 649.42L963.36 642.41" stroke="hsl(228.5, 77.2%, 51.5%)" stroke-width="1.5"></path><path d="M1126.41 649.42L1000.55 499.42" stroke="hsl(228.5, 77.2%, 51.5%)" stroke-width="1.5"></path><path d="M1126.41 649.42L1271.26 504.59" stroke="hsl(228.5, 77.2%, 51.5%)" stroke-width="1.5"></path><path d="M1427.14 511.48L1427.14 511.48" stroke="hsl(228.5, 77.2%, 51.5%)" stroke-width="1.5"></path><path d="M1427.14 511.48L1412.17 388.89" stroke="hsl(228.5, 77.2%, 51.5%)" stroke-width="1.5"></path><path d="M1427.14 511.48L1404.02 662.86" stroke="hsl(228.5, 77.2%, 51.5%)" stroke-width="1.5"></path><path d="M1427.14 511.48L1271.26 504.59" stroke="hsl(228.5, 77.2%, 51.5%)" stroke-width="1.5"></path><path d="M1427.14 511.48L1556.99 693.96" stroke="hsl(228.5, 77.2%, 51.5%)" stroke-width="1.5"></path><path d="M1427.14 511.48L1432.46 235.69" stroke="hsl(228.5, 77.2%, 51.5%)" stroke-width="1.5"></path><path d="M1427.14 511.48L1147.5 525.98" stroke="hsl(228.5, 77.2%, 51.5%)" stroke-width="1.5"></path><path d="M1581.96 38.84L1581.96 38.84" stroke="hsl(228.5, 77.2%, 51.5%)" stroke-width="1.5"></path><path d="M1581.96 38.84L1593.27 -53.78" stroke="hsl(228.5, 77.2%, 51.5%)" stroke-width="1.5"></path><path d="M-50.24 546.14L-50.24 546.14" stroke="hsl(228.5, 77.2%, 51.5%)" stroke-width="1.5"></path><path d="M-50.24 546.14L-55.54 666.21" stroke="hsl(228.5, 77.2%, 51.5%)" stroke-width="1.5"></path><path d="M-50.24 546.14L80.61 529.72" stroke="hsl(228.5, 77.2%, 51.5%)" stroke-width="1.5"></path><path d="M-50.24 546.14L95.96 657.25" stroke="hsl(228.5, 77.2%, 51.5%)" stroke-width="1.5"></path><path d="M-50.24 546.14L199.77 504.49" stroke="hsl(228.5, 77.2%, 51.5%)" stroke-width="1.5"></path><path d="M-50.24 546.14L257.81 688.48" stroke="hsl(228.5, 77.2%, 51.5%)" stroke-width="1.5"></path><path d="M-50.24 546.14L385.74 656.29" stroke="hsl(228.5, 77.2%, 51.5%)" stroke-width="1.5"></path><path d="M-55.54 666.21L-55.54 666.21" stroke="hsl(228.5, 77.2%, 51.5%)" stroke-width="1.5"></path><path d="M-55.54 666.21L95.96 657.25" stroke="hsl(228.5, 77.2%, 51.5%)" stroke-width="1.5"></path><path d="M-55.54 666.21L80.61 529.72" stroke="hsl(228.5, 77.2%, 51.5%)" stroke-width="1.5"></path><path d="M-55.54 666.21L199.77 504.49" stroke="hsl(228.5, 77.2%, 51.5%)" stroke-width="1.5"></path><path d="M80.61 529.72L80.61 529.72" stroke="hsl(228.5, 77.2%, 51.5%)" stroke-width="1.5"></path><path d="M80.61 529.72L199.77 504.49" stroke="hsl(228.5, 77.2%, 51.5%)" stroke-width="1.5"></path><path d="M80.61 529.72L95.96 657.25" stroke="hsl(228.5, 77.2%, 51.5%)" stroke-width="1.5"></path><path d="M95.96 657.25L95.96 657.25" stroke="hsl(228.5, 77.2%, 51.5%)" stroke-width="1.5"></path><path d="M95.96 657.25L257.81 688.48" stroke="hsl(228.5, 77.2%, 51.5%)" stroke-width="1.5"></path><path d="M95.96 657.25L199.77 504.49" stroke="hsl(228.5, 77.2%, 51.5%)" stroke-width="1.5"></path><path d="M95.96 657.25L385.74 656.29" stroke="hsl(228.5, 77.2%, 51.5%)" stroke-width="1.5"></path><path d="M199.77 504.49L199.77 504.49" stroke="hsl(228.5, 77.2%, 51.5%)" stroke-width="1.5"></path><path d="M257.81 688.48L257.81 688.48" stroke="hsl(228.5, 77.2%, 51.5%)" stroke-width="1.5"></path><path d="M257.81 688.48L385.74 656.29" stroke="hsl(228.5, 77.2%, 51.5%)" stroke-width="1.5"></path><path d="M257.81 688.48L199.77 504.49" stroke="hsl(228.5, 77.2%, 51.5%)" stroke-width="1.5"></path><path d="M257.81 688.48L402.24 534.85" stroke="hsl(228.5, 77.2%, 51.5%)" stroke-width="1.5"></path><path d="M257.81 688.48L493.75 660.33" stroke="hsl(228.5, 77.2%, 51.5%)" stroke-width="1.5"></path><path d="M257.81 688.48L80.61 529.72" stroke="hsl(228.5, 77.2%, 51.5%)" stroke-width="1.5"></path><path d="M402.24 534.85L402.24 534.85" stroke="hsl(228.5, 77.2%, 51.5%)" stroke-width="1.5"></path><path d="M402.24 534.85L385.74 656.29" stroke="hsl(228.5, 77.2%, 51.5%)" stroke-width="1.5"></path><path d="M402.24 534.85L527.65 525.17" stroke="hsl(228.5, 77.2%, 51.5%)" stroke-width="1.5"></path><path d="M385.74 656.29L385.74 656.29" stroke="hsl(228.5, 77.2%, 51.5%)" stroke-width="1.5"></path><path d="M527.65 525.17L527.65 525.17" stroke="hsl(228.5, 77.2%, 51.5%)" stroke-width="1.5"></path><path d="M527.65 525.17L688.73 522.73" stroke="hsl(228.5, 77.2%, 51.5%)" stroke-width="1.5"></path><path d="M527.65 525.17L663.94 393.07" stroke="hsl(228.5, 77.2%, 51.5%)" stroke-width="1.5"></path><path d="M663.94 393.07L663.94 393.07" stroke="hsl(228.5, 77.2%, 51.5%)" stroke-width="1.5"></path><path d="M663.94 393.07L825.35 395.25" stroke="hsl(228.5, 77.2%, 51.5%)" stroke-width="1.5"></path><path d="M663.94 393.07L794.49 543.74" stroke="hsl(228.5, 77.2%, 51.5%)" stroke-width="1.5"></path><path d="M663.94 393.07L683.82 638.04" stroke="hsl(228.5, 77.2%, 51.5%)" stroke-width="1.5"></path><path d="M683.82 638.04L683.82 638.04" stroke="hsl(228.5, 77.2%, 51.5%)" stroke-width="1.5"></path><path d="M683.82 638.04L791.21 665.02" stroke="hsl(228.5, 77.2%, 51.5%)" stroke-width="1.5"></path><path d="M683.82 638.04L794.49 543.74" stroke="hsl(228.5, 77.2%, 51.5%)" stroke-width="1.5"></path><path d="M683.82 638.04L527.65 525.17" stroke="hsl(228.5, 77.2%, 51.5%)" stroke-width="1.5"></path><path d="M825.35 395.25L825.35 395.25" stroke="hsl(228.5, 77.2%, 51.5%)" stroke-width="1.5"></path><path d="M825.35 395.25L794.49 543.74" stroke="hsl(228.5, 77.2%, 51.5%)" stroke-width="1.5"></path><path d="M825.35 395.25L983.72 357.91" stroke="hsl(228.5, 77.2%, 51.5%)" stroke-width="1.5"></path><path d="M794.49 543.74L794.49 543.74" stroke="hsl(228.5, 77.2%, 51.5%)" stroke-width="1.5"></path><path d="M794.49 543.74L791.21 665.02" stroke="hsl(228.5, 77.2%, 51.5%)" stroke-width="1.5"></path><path d="M791.21 665.02L791.21 665.02" stroke="hsl(228.5, 77.2%, 51.5%)" stroke-width="1.5"></path><path d="M983.72 357.91L983.72 357.91" stroke="hsl(228.5, 77.2%, 51.5%)" stroke-width="1.5"></path><path d="M983.72 357.91L1124.41 370.82" stroke="hsl(228.5, 77.2%, 51.5%)" stroke-width="1.5"></path><path d="M983.72 357.91L1000.55 499.42" stroke="hsl(228.5, 77.2%, 51.5%)" stroke-width="1.5"></path><path d="M983.72 357.91L1147.5 525.98" stroke="hsl(228.5, 77.2%, 51.5%)" stroke-width="1.5"></path><path d="M983.72 357.91L794.49 543.74" stroke="hsl(228.5, 77.2%, 51.5%)" stroke-width="1.5"></path><path d="M1000.55 499.42L1000.55 499.42" stroke="hsl(228.5, 77.2%, 51.5%)" stroke-width="1.5"></path><path d="M1000.55 499.42L963.36 642.41" stroke="hsl(228.5, 77.2%, 51.5%)" stroke-width="1.5"></path><path d="M1000.55 499.42L1147.5 525.98" stroke="hsl(228.5, 77.2%, 51.5%)" stroke-width="1.5"></path><path d="M1000.55 499.42L1124.41 370.82" stroke="hsl(228.5, 77.2%, 51.5%)" stroke-width="1.5"></path><path d="M963.36 642.41L963.36 642.41" stroke="hsl(228.5, 77.2%, 51.5%)" stroke-width="1.5"></path><path d="M1124.41 370.82L1124.41 370.82" stroke="hsl(228.5, 77.2%, 51.5%)" stroke-width="1.5"></path><path d="M1124.41 370.82L1147.5 525.98" stroke="hsl(228.5, 77.2%, 51.5%)" stroke-width="1.5"></path><path d="M1124.41 370.82L1239.49 242.62" stroke="hsl(228.5, 77.2%, 51.5%)" stroke-width="1.5"></path><path d="M1124.41 370.82L1271.26 504.59" stroke="hsl(228.5, 77.2%, 51.5%)" stroke-width="1.5"></path><path d="M1124.41 370.82L1126.41 649.42" stroke="hsl(228.5, 77.2%, 51.5%)" stroke-width="1.5"></path><path d="M1147.5 525.98L1147.5 525.98" stroke="hsl(228.5, 77.2%, 51.5%)" stroke-width="1.5"></path><path d="M1147.5 525.98L1271.26 504.59" stroke="hsl(228.5, 77.2%, 51.5%)" stroke-width="1.5"></path><path d="M1312.38 -94L1312.38 -94" stroke="hsl(228.5, 77.2%, 51.5%)" stroke-width="1.5"></path><path d="M1312.38 -94L1462.29 -40.49" stroke="hsl(228.5, 77.2%, 51.5%)" stroke-width="1.5"></path><path d="M1312.38 -94L1240.76 49.06" stroke="hsl(228.5, 77.2%, 51.5%)" stroke-width="1.5"></path><path d="M1312.38 -94L1409.45 98.21" stroke="hsl(228.5, 77.2%, 51.5%)" stroke-width="1.5"></path><path d="M1240.76 49.06L1240.76 49.06" stroke="hsl(228.5, 77.2%, 51.5%)" stroke-width="1.5"></path><path d="M1240.76 49.06L1409.45 98.21" stroke="hsl(228.5, 77.2%, 51.5%)" stroke-width="1.5"></path><path d="M1239.49 242.62L1239.49 242.62" stroke="hsl(228.5, 77.2%, 51.5%)" stroke-width="1.5"></path><path d="M1239.49 242.62L1432.46 235.69" stroke="hsl(228.5, 77.2%, 51.5%)" stroke-width="1.5"></path><path d="M1239.49 242.62L1240.76 49.06" stroke="hsl(228.5, 77.2%, 51.5%)" stroke-width="1.5"></path><path d="M1239.49 242.62L1409.45 98.21" stroke="hsl(228.5, 77.2%, 51.5%)" stroke-width="1.5"></path><path d="M1239.49 242.62L1412.17 388.89" stroke="hsl(228.5, 77.2%, 51.5%)" stroke-width="1.5"></path><path d="M1239.49 242.62L1271.26 504.59" stroke="hsl(228.5, 77.2%, 51.5%)" stroke-width="1.5"></path><path d="M1271.26 504.59L1271.26 504.59" stroke="hsl(228.5, 77.2%, 51.5%)" stroke-width="1.5"></path><path d="M1271.26 504.59L1412.17 388.89" stroke="hsl(228.5, 77.2%, 51.5%)" stroke-width="1.5"></path><path d="M1271.26 504.59L1404.02 662.86" stroke="hsl(228.5, 77.2%, 51.5%)" stroke-width="1.5"></path><path d="M1462.29 -40.49L1462.29 -40.49" stroke="hsl(228.5, 77.2%, 51.5%)" stroke-width="1.5"></path><path d="M1462.29 -40.49L1593.27 -53.78" stroke="hsl(228.5, 77.2%, 51.5%)" stroke-width="1.5"></path><path d="M1462.29 -40.49L1581.96 38.84" stroke="hsl(228.5, 77.2%, 51.5%)" stroke-width="1.5"></path><path d="M1462.29 -40.49L1409.45 98.21" stroke="hsl(228.5, 77.2%, 51.5%)" stroke-width="1.5"></path><path d="M1409.45 98.21L1409.45 98.21" stroke="hsl(228.5, 77.2%, 51.5%)" stroke-width="1.5"></path><path d="M1409.45 98.21L1432.46 235.69" stroke="hsl(228.5, 77.2%, 51.5%)" stroke-width="1.5"></path><path d="M1432.46 235.69L1432.46 235.69" stroke="hsl(228.5, 77.2%, 51.5%)" stroke-width="1.5"></path><path d="M1432.46 235.69L1412.17 388.89" stroke="hsl(228.5, 77.2%, 51.5%)" stroke-width="1.5"></path><path d="M1432.46 235.69L1607.01 216.86" stroke="hsl(228.5, 77.2%, 51.5%)" stroke-width="1.5"></path><path d="M1432.46 235.69L1581.96 38.84" stroke="hsl(228.5, 77.2%, 51.5%)" stroke-width="1.5"></path><path d="M1432.46 235.69L1240.76 49.06" stroke="hsl(228.5, 77.2%, 51.5%)" stroke-width="1.5"></path><path d="M1412.17 388.89L1412.17 388.89" stroke="hsl(228.5, 77.2%, 51.5%)" stroke-width="1.5"></path><path d="M1404.02 662.86L1404.02 662.86" stroke="hsl(228.5, 77.2%, 51.5%)" stroke-width="1.5"></path><path d="M1404.02 662.86L1556.99 693.96" stroke="hsl(228.5, 77.2%, 51.5%)" stroke-width="1.5"></path><path d="M1593.27 -53.78L1593.27 -53.78" stroke="hsl(228.5, 77.2%, 51.5%)" stroke-width="1.5"></path><path d="M1593.27 -53.78L1409.45 98.21" stroke="hsl(228.5, 77.2%, 51.5%)" stroke-width="1.5"></path><path d="M1593.27 -53.78L1607.01 216.86" stroke="hsl(228.5, 77.2%, 51.5%)" stroke-width="1.5"></path><path d="M1593.27 -53.78L1312.38 -94" stroke="hsl(228.5, 77.2%, 51.5%)" stroke-width="1.5"></path><path d="M1607.01 216.86L1607.01 216.86" stroke="hsl(228.5, 77.2%, 51.5%)" stroke-width="1.5"></path><path d="M1607.01 216.86L1581.96 38.84" stroke="hsl(228.5, 77.2%, 51.5%)" stroke-width="1.5"></path><path d="M1556.99 693.96L1556.99 693.96" stroke="hsl(228.5, 77.2%, 51.5%)" stroke-width="1.5"></path><path d="M1556.99 693.96L1412.17 388.89" stroke="hsl(228.5, 77.2%, 51.5%)" stroke-width="1.5"></path><path d="M1556.99 693.96L1271.26 504.59" stroke="hsl(228.5, 77.2%, 51.5%)" stroke-width="1.5"></path><path d="M1556.99 693.96L1126.41 649.42" stroke="hsl(228.5, 77.2%, 51.5%)" stroke-width="1.5"></path><circle r="25" cx="493.75" cy="660.33" fill="url(#SvgjsRadialGradient1001)"></circle><circle r="25" cx="688.73" cy="522.73" fill="url(#SvgjsRadialGradient1001)"></circle><circle r="25" cx="1126.41" cy="649.42" fill="url(#SvgjsRadialGradient1001)"></circle><circle r="25" cx="1427.14" cy="511.48" fill="url(#SvgjsRadialGradient1001)"></circle><circle r="25" cx="1581.96" cy="38.84" fill="url(#SvgjsRadialGradient1001)"></circle><circle r="5" cx="-50.24" cy="546.14" fill="#8b9ad9"></circle><circle r="5" cx="-55.54" cy="666.21" fill="#8b9ad9"></circle><circle r="5" cx="80.61" cy="529.72" fill="#8b9ad9"></circle><circle r="5" cx="95.96" cy="657.25" fill="#8b9ad9"></circle><circle r="5" cx="199.77" cy="504.49" fill="#8b9ad9"></circle><circle r="5" cx="257.81" cy="688.48" fill="#8b9ad9"></circle><circle r="5" cx="402.24" cy="534.85" fill="#8b9ad9"></circle><circle r="5" cx="385.74" cy="656.29" fill="#8b9ad9"></circle><circle r="5" cx="527.65" cy="525.17" fill="#8b9ad9"></circle><circle r="5" cx="663.94" cy="393.07" fill="#8b9ad9"></circle><circle r="5" cx="683.82" cy="638.04" fill="#8b9ad9"></circle><circle r="5" cx="825.35" cy="395.25" fill="#8b9ad9"></circle><circle r="5" cx="794.49" cy="543.74" fill="#8b9ad9"></circle><circle r="5" cx="791.21" cy="665.02" fill="#8b9ad9"></circle><circle r="5" cx="983.72" cy="357.91" fill="#8b9ad9"></circle><circle r="5" cx="1000.55" cy="499.42" fill="#8b9ad9"></circle><circle r="5" cx="963.36" cy="642.41" fill="#8b9ad9"></circle><circle r="5" cx="1124.41" cy="370.82" fill="#8b9ad9"></circle><circle r="5" cx="1147.5" cy="525.98" fill="#8b9ad9"></circle><circle r="5" cx="1312.38" cy="-94" fill="#8b9ad9"></circle><circle r="5" cx="1240.76" cy="49.06" fill="#8b9ad9"></circle><circle r="5" cx="1239.49" cy="242.62" fill="#8b9ad9"></circle><circle r="5" cx="1271.26" cy="504.59" fill="#8b9ad9"></circle><circle r="5" cx="1462.29" cy="-40.49" fill="#8b9ad9"></circle><circle r="5" cx="1409.45" cy="98.21" fill="#8b9ad9"></circle><circle r="5" cx="1432.46" cy="235.69" fill="#8b9ad9"></circle><circle r="5" cx="1412.17" cy="388.89" fill="#8b9ad9"></circle><circle r="5" cx="1404.02" cy="662.86" fill="#8b9ad9"></circle><circle r="5" cx="1593.27" cy="-53.78" fill="#8b9ad9"></circle><circle r="5" cx="1607.01" cy="216.86" fill="#8b9ad9"></circle><circle r="5" cx="1556.99" cy="693.96" fill="#8b9ad9"></circle></g><defs><mask id="SvgjsMask1000"><rect width="1440" height="560" fill="#ffffff"></rect></mask><radialGradient id="SvgjsRadialGradient1001"><stop stop-color="#ffffff" offset="0.1"></stop><stop stop-color="#1735b3" offset="0.2"></stop><stop stop-color="rgba(23, 53, 179, 0)" offset="1"></stop></radialGradient></defs></svg>