<svg xmlns="http://www.w3.org/2000/svg" version="1.1" xmlns:xlink="http://www.w3.org/1999/xlink" xmlns:svgjs="http://svgjs.com/svgjs" width="1440" height="560" preserveAspectRatio="none" viewBox="0 0 1440 560"><g mask="url(&quot;#SvgjsMask1013&quot;)" fill="none"><rect width="1440" height="560" x="0" y="0" fill="url(#SvgjsLinearGradient1014)"></rect><path d="M -428.9921362894527,97 C -332.99,171.2 -140.99,467.4 51.00786371054735,468 C 243.01,468.6 339.01,97.4 531.0078637105473,100 C 723.01,102.6 819.01,471.2 1011.0078637105473,481 C 1203.01,490.8 1405.21,181.8 1491.0078637105473,149 C 1576.81,116.2 1450.2,283.4 1440,317" stroke="rgba(51, 121, 194, 0.58)" stroke-width="2"></path><path d="M -657.8919209132973,73 C -561.89,133.8 -369.89,363 -177.89192091329733,377 C 14.11,391 110.11,121.4 302.1080790867027,143 C 494.11,164.6 590.11,499.2 782.1080790867027,485 C 974.11,470.8 1130.53,106.4 1262.1080790867027,72 C 1393.69,37.6 1404.42,264.8 1440,313" stroke="rgba(51, 121, 194, 0.58)" stroke-width="2"></path><path d="M -21.012766472132114,371 C 74.99,332.8 266.99,174.6 458.9872335278679,180 C 650.99,185.4 746.99,400.4 938.9872335278678,398 C 1130.99,395.6 1226.99,186.6 1418.9872335278678,168 C 1610.99,149.4 1894.78,326.6 1898.9872335278678,305 C 1903.19,283.4 1531.8,109 1440,60" stroke="rgba(51, 121, 194, 0.58)" stroke-width="2"></path><path d="M -280.6167369160539,467 C -184.62,427.6 7.38,273.2 199.3832630839461,270 C 391.38,266.8 487.38,462 679.3832630839461,451 C 871.38,440 967.38,245.2 1159.383263083946,215 C 1351.38,184.8 1583.26,327 1639.383263083946,300 C 1695.51,273 1479.88,124 1440,80" stroke="rgba(51, 121, 194, 0.58)" stroke-width="2"></path></g><defs><mask id="SvgjsMask1013"><rect width="1440" height="560" fill="#ffffff"></rect></mask><linearGradient x1="50%" y1="0%" x2="50%" y2="100%" gradientUnits="userSpaceOnUse" id="SvgjsLinearGradient1014"><stop stop-color="#0e2a47" offset="0"></stop><stop stop-color="#00459e" offset="1"></stop></linearGradient></defs></svg>